<svg width="90" height="47" viewBox="0 0 90 47" fill="none" xmlns="http://www.w3.org/2000/svg">
<g clip-path="url(#clip0_566_238)">
<mask id="mask0_566_238" style="mask-type:luminance" maskUnits="userSpaceOnUse" x="0" y="0" width="90" height="47">
<path d="M90 0H0V47H90V0Z" fill="white"/>
</mask>
<g mask="url(#mask0_566_238)">
<path d="M73.5837 0.928223H78.4737V1.1602H81.0351V1.27637H81.7337V1.39236H81.8503V1.50835H82.4323V1.62452H83.0145V1.74051H83.1309V1.8565H83.5967V1.97267H84.0624V2.20464H84.528V2.32082H84.9939V2.43681H85.1103V2.5528H85.4596V2.66897H85.8088V2.90095H86.1581V3.01712H86.2745V3.24909H86.6238V3.36527H86.8567V3.59724H87.206V3.71342H87.3224V3.94539H87.5553V4.06157H87.6717V4.29354H87.9046V4.40972H88.0209V4.64169H88.2539V4.75787H88.3702V4.98984H88.6032V5.10602H88.7195V5.45417H88.9525V5.68614H89.0688V6.03429H89.3017V6.38244H89.4181V6.73059H89.651V7.07874H89.7674V7.54306H89.8838V7.77504H90.0003V11.2565H89.8838V11.3725H89.7674V12.185H89.651V12.6491H89.4181V12.9973H89.3017V13.5776H89.0688V13.9257H88.9525V14.3899H88.7195V14.854H88.6032V15.0862H88.4866V15.2022H88.3702V15.4343H88.2539V15.7825H88.0209V16.1306H87.9046V16.2466H87.6717V16.7109H87.5553V16.9429H87.4387V17.0591H87.3224V17.2911H87.206V17.5232H86.9731V17.8714H86.8567V17.9874H86.6238V18.2195H86.5074V18.5677H86.2745V18.9158H86.1581V19.0318H85.9252V19.264H85.8088V19.38H85.5759V19.7281H85.4596V19.9603H85.2266V20.1924H85.1103V20.4244H84.8773V20.6566H84.761V20.7726H84.528V21.0047H84.4117V21.1207H84.2953V21.2369H84.1788V21.3529H84.0624V21.4689H83.946V21.817H83.7131V22.0492H83.5967V22.1652H83.3638V22.3973H83.2474V22.5133H83.0145V22.6295H82.8981V22.8615H82.7816V22.9776H82.6652V23.2096H82.4323V23.3258H82.1996V23.5578H81.9666V23.6737H81.8503V23.9059H81.6174V24.0219H81.501V24.37H81.2681V24.6022H80.9188V24.7182H80.8024V24.9504H80.5695V25.0663H80.4531V25.2985H80.2202V25.4145H80.1038V25.6467H79.8709V25.7626H79.7545V25.9948H79.5216V26.1108H79.4052V26.343H79.1723V26.4589H79.056V26.6911H78.823V26.8071H78.4737V27.0393H78.3574V27.1552H78.1244V27.3874H78.0081V27.5034H77.7752V27.7356H77.4259V27.8515H77.3095V28.0837H77.0766V28.1997H76.9602V28.4318H76.7273V28.5478H76.378V28.78H76.2616V28.896H76.1451V29.0122H76.0287V29.1282H75.9123V29.2441H75.7958V29.3603H75.6794V29.4763H75.4465V29.5923H75.2138V29.8244H74.8645V29.9404H74.7479V30.0566H74.6315V30.1726H74.5152V30.2886H74.3986V30.5207H74.0493V30.6367H73.8166V30.7529H73.4673V30.9849H73.3507V31.1011H73.118V31.333H73.0015V31.4492H72.6522V31.6812H72.4194V31.7974H72.3029V31.9133H72.1865V32.0293H71.9538V32.1455H71.6045V32.3775H71.3716V32.4937H71.2552V32.7256H70.9059V32.8418H70.673V33.0738H70.3237V33.19H70.2073V33.3059H70.0908V33.4219H69.858V33.5381H69.6251V33.7701H69.2758V33.8863H69.1595V34.1182H68.8102V34.2344H68.5772V34.4664H68.3443V34.5826H67.995V34.6985H67.8787V34.8145H67.7623V34.9307H67.5294V35.1627H67.2964V35.2789H66.9472V35.3948H66.8308V35.5108H66.5979V35.627H66.3651V35.859H66.0158V35.9752H65.8993V36.2071H65.55V36.3233H65.3173V36.5553H64.968V36.6715H64.6187V36.9034H64.2694V37.0196H63.9201V37.2516H63.8035V37.3676H63.4543V37.5997H63.2215V37.7157H62.8722V37.9479H62.4064V38.0639H62.1736V38.296H61.8244V38.412H61.4751V38.5282H61.3585V38.7602H61.0092V38.8763H60.6599V39.1083H60.3106V39.2245H59.9613V39.4565H59.6121V39.5726H59.2628V39.8046H58.9135V39.9208H58.6807V40.1528H58.2151V40.2689H57.8658V40.5009H57.5165V40.6171H57.1672V40.8491H56.8179V40.9652H56.585V41.0812H56.4686V41.1972H56.1193V41.3134H55.8864V41.4294H55.7701V41.5454H55.4208V41.6615H55.0715V41.7775H54.9549V41.8935H54.6056V42.0097H54.3729V42.1257H54.2563V42.2417H54.0236V42.3578H53.6743V42.4738H53.5578V42.5898H52.9757V42.706H52.7428V42.822H52.6264V42.938H52.3935V43.0541H52.0442V43.1701H51.9279V43.2861H51.5786V43.4023H51.3456V43.5183H51.2293V43.6343H50.7634V43.7504H50.2978V43.9824H49.7156V44.0986H49.3663V44.3306H49.017V44.4467H48.6677V44.6787H48.202V44.7949H47.8527V44.9109H47.7364V45.0269H47.1542V45.143H46.8049V45.259H46.5719V45.375H46.2227V45.4912H45.8734V45.7232H45.4077V45.8393H44.942V45.9553H44.8257V45.7232H44.7091V45.6072H44.8257V45.4912H44.942V45.375H45.1748V45.259H45.5241V45.143H45.6406V45.0269H45.9899V44.9109H46.5719V44.6787H46.8049V44.5627H47.0378V44.3306H47.3871V44.2146H47.7364V43.9824H48.0857V43.8664H48.5513V43.7504H48.6677V43.6343H48.9006V43.5183H49.1335V43.2861H49.4828V43.1701H49.8321V42.938H50.0648V42.822H50.4141V42.706H50.5307V42.5898H50.88V42.4738H51.2293V42.2417H51.3456V42.1257H51.6949V41.8935H51.9279V41.7775H52.2771V41.5454H52.6264V41.4294H52.9757V41.1972H53.325V41.0812H53.5578V40.9652H53.6743V40.8491H53.7907V40.7331H54.0236V40.6171H54.14V40.5009H54.3729V40.3849H54.6056V40.2689H54.7222V40.1528H54.9549V40.0368H55.1878V39.9208H55.5371V39.6886H55.6535V39.5726H56.0028V39.3405H56.2357V39.2245H56.585V38.9923H56.9343V38.8763H57.0507V38.6442H57.3999V38.5282H57.6329V38.296H57.7492V38.18H57.9822V38.0639H58.0985V37.9479H58.3315V37.8319H58.6807V37.5997H58.7971V37.4837H59.1464V37.2516H59.3793V37.1356H59.4957V37.0196H59.7286V36.9034H59.845V36.7874H60.1943V36.5553H60.4272V36.4393H60.5436V36.2071H60.7765V36.0911H61.1258V35.859H61.2421V35.743H61.4751V35.627H61.5914V35.5108H61.8244V35.3948H61.9407V35.1627H62.1736V35.0467H62.5229V34.8145H62.6393V34.6985H62.7557V34.5826H62.8722V34.4664H62.9886V34.3504H63.2215V34.2344H63.3379V34.1182H63.4543V34.0022H63.6872V33.7701H63.9201V33.6541H64.0365V33.5381H64.1528V33.4219H64.2694V33.3059H64.5021V33.0738H64.735V32.9578H64.8514V32.7256H65.0843V32.6096H65.2007V32.3775H65.4336V32.2615H65.6665V32.1455H65.8993V31.9133H66.1322V31.7974H66.2486V31.5652H66.4815V31.4492H66.5979V31.217H66.8308V31.1011H66.9472V30.8689H67.1801V30.7529H67.2964V30.5207H67.5294V30.4048H67.6457V30.1726H67.8787V30.0566H67.995V29.8244H68.2279V29.7085H68.3443V29.4763H68.5772V29.3603H68.6936V29.1282H68.9265V29.0122H69.0429V28.78H69.2758V28.664H69.3922V28.4318H69.6251V28.3159H69.7415V27.9677H69.9744V27.7356H70.0908V27.6196H70.3237V27.3874H70.4401V27.2714H70.5566V27.1552H70.673V26.9233H70.7893V26.6911H70.9059V26.5751H71.1386V26.227H71.2552V26.1108H71.3716V25.9948H71.4879V25.8788H71.6045V25.7626H71.7209V25.5307H71.8372V25.2985H71.9538V25.1825H72.1865V24.8344H72.3029V24.7182H72.4194V24.4862H72.5358V24.37H72.6522V24.1381H72.7687V24.0219H72.8851V23.7899H73.0015V23.6737H73.118V23.4418H73.2344V23.3258H73.3507V22.9776H73.5837V22.5133H73.7V22.2813H73.8166V22.1652H73.933V21.9332H74.0493V21.585H74.2823V21.2369H74.3986V20.6566H74.6315V20.0763H74.7479V19.4961H74.9808V18.7998H75.0972V17.8714H75.2138V17.7554H75.3301V15.8985H75.0972V15.0862H74.9808V14.622H74.7479V14.1577H74.6315V13.6936H74.3986V13.3454H74.2823V13.2294H74.1659V13.1133H74.0493V12.8813H73.933V12.6491H73.7V12.5331H73.5837V12.301H73.3507V12.185H73.2344V11.9528H73.0015V11.8368H72.8851V11.6047H72.5358V11.4887H72.3029V11.2565H72.1865V11.1405H71.8372V10.9084H71.6045V10.7924H71.2552V10.6762H71.1386V10.5602H70.7893V10.4442H70.4401V10.2121H69.9744V10.0961H69.6251V9.86393H69.0429V9.74795H68.5772V9.63196H68.3443V9.51579H67.6457V9.3998H66.4815V9.28381H66.1322V9.16764H64.735V9.05165H59.845V9.16764H58.0985V9.28381H57.7492V9.3998H56.1193V9.63196H56.3521V9.74795H56.4686V9.97992H56.7014V10.0961H56.8179V10.3281H57.0507V10.4442H57.1672V10.6762H57.3999V10.7924H57.5165V11.0244H57.7492V11.1405H57.8658V11.3725H57.9822V11.4887H58.0985V11.7207H58.2151V11.8368H58.3315V11.9528H58.4478V12.185H58.5644V12.417H58.7971V12.5331H58.9135V12.8813H59.1464V13.1133H59.2628V13.4614H59.4957V13.8096H59.6121V14.1577H59.845V14.5059H59.9613V14.622H60.1943V14.9702H60.3106V15.3183H60.4272V15.4343H60.5436V15.8985H60.6599V16.3628H60.7765V16.8269H61.0092V17.2911H61.1258V17.8714H61.3585V18.4517H61.4751V19.148H61.7078V20.8887H61.8244V23.6737H61.7078V24.6022H61.5914V24.7182H61.4751V25.0663H61.1258V25.1825H60.7765V25.4145H60.6599V25.5307H60.4272V25.7626H60.0779V25.8788H59.7286V26.1108H59.4957V26.227H59.3793V26.343H59.2628V26.4589H58.9135V26.5751H58.6807V26.6911H58.5644V26.8071H58.3315V26.9233H58.2151V27.0393H58.0985V27.1552H57.8658V27.2714H57.6329V27.5034H57.2836V27.6196H56.9343V27.7356H56.8179V27.8515H56.585V27.9677H56.4686V28.0837H56.3521V28.1997H56.1193V28.3159H55.7701V28.4318H55.5371V28.5478H55.4208V28.664H55.0715V28.78H54.7222V29.0122H54.3729V29.2441H54.14V29.3603H54.0236V29.4763H53.907V29.5923H53.6743V29.7085H53.325V29.9404H52.9757V30.0566H52.7428V30.1726H52.6264V30.2886H52.3935V30.4048H51.9279V30.5207H51.8113V30.6367H51.5786V30.7529H51.2293V30.8689H51.1127V30.9849H50.88V31.1011H50.5307V31.217H50.1814V31.333H50.0648V31.4492H49.7156V31.5652H49.4828V31.6812H49.3663V31.7974H49.017V31.9133H48.6677V32.1455H48.3184V32.3775H47.9691V32.4937H47.6198V32.6096H47.5034V32.7256H47.1542V32.8418H46.8049V32.9578H46.5719V33.0738H46.3392V33.19H45.8734V33.3059H45.5241V33.5381H45.1748V33.6541H44.8257V33.8863H44.3598V34.0022H44.2435V34.1182H44.0105V34.2344H43.4285V34.3504H43.0792V34.4664H42.9627V34.5826H42.3806V34.6985H42.0314V34.8145H41.9148V34.9307H41.5655V35.0467H40.8669V35.2789H40.5176V35.3948H40.052V35.5108H39.8191V35.627H39.4698V35.743H39.1205V35.859H38.8877V35.9752H38.3055V36.0911H38.0726V36.2071H37.8399V36.3233H36.9084V36.4393H36.3262V36.5553H35.9769V36.6715H35.3948V36.5553H35.0455V36.3233H34.929V36.2071H34.6963V35.9752H34.347V35.859H34.2304V35.627H33.9977V35.5108H33.7648V35.3948H33.6484V35.2789H33.5318V35.1627H33.2991V34.9307H33.1825V34.8145H32.9498V34.5826H32.8333V34.4664H32.6005V34.2344H32.484V34.1182H32.2512V33.8863H32.1347V33.7701H31.9019V33.5381H31.7854V33.19H31.5526V33.0738H31.4361V32.8418H31.2034V32.7256H31.087V32.3775H30.9704V32.1455H30.7377V32.0293H30.6211V31.6812H30.3884V31.4492H30.2719V31.1011H30.0391V30.7529H29.9226V30.5207H29.6898V30.1726H29.5733V29.8244H29.3405V29.5923H29.224V29.2441H29.1076V29.1282H28.9912V28.78H28.8747V28.1997H28.642V27.7356H28.5254V27.0393H28.2927V26.4589H28.1761V25.7626H27.9434V24.9504H27.8268V23.3258H27.7104V22.9776H27.8268V22.0492H27.7104V21.817H27.8268V20.1924H27.9434V19.6121H28.0597V19.4961H28.1761V19.0318H28.2927V18.3355H28.5254V17.4072H28.642V16.5948H28.8747V15.8985H28.9912V15.5503H29.224V15.2022H29.3405V14.854H29.5733V14.5059H29.6898V14.2739H29.8062V14.1577H29.9226V13.9257H30.0391V13.5776H30.1555V13.4614H30.2719V13.2294H30.3884V12.8813H30.6211V12.7651H30.7377V12.417H30.9704V12.185H31.087V12.0688H31.2034V11.9528H31.3197V11.7207H31.4361V11.4887H31.5526V11.3725H31.7854V11.1405H31.9019V11.0244H32.1347V10.7924H32.2512V10.6762H32.3676V10.5602H32.484V10.3281H32.6005V10.2121H32.7169V10.0961H32.8333V9.97992H32.9498V9.74795H33.1825V9.63196H33.4155V9.51579H33.5318V9.3998H33.6484V9.28381H33.8811V9.05165H33.9977V8.93566H34.2304V8.7035H34.5797V8.58751H34.6963V8.47134H34.929V8.23936H35.2783V8.12319H35.5112V8.0072H35.6276V7.89122H35.7441V7.77504H35.9769V7.54306H36.3262V7.42689H36.4427V7.3109H36.5591V7.19491H36.9084V7.07874H37.374V6.84677H37.7233V6.73059H38.1892V6.49861H38.5385V6.38244H38.8877V6.15047H39.3534V6.03429H40.052V5.9183H40.1684V6.03429H40.2849V5.80232H40.8669V5.68614H41.6821V5.45417H42.7299V5.33799H46.9212V5.45417H47.9691V5.68614H48.6677V5.80232H49.3663V5.9183H49.5992V6.03429H50.1814V6.15047H50.6471V6.38244H51.3456V6.15047H51.8113V6.03429H52.2771V5.9183H52.6264V5.80232H52.9757V5.68614H53.4414V5.45417H53.7907V5.33799H54.3729V5.10602H54.7222V4.98984H55.1878V4.87385H55.4208V4.75787H55.8864V4.64169H56.585V4.40972H57.0507V4.29354H57.5165V4.17756H57.6329V4.06157H57.9822V3.94539H58.5644V3.82941H58.6807V3.71342H59.03V3.59724H60.0779V3.36527H60.5436V3.24909H61.2421V3.01712H61.8244V2.90095H62.5229V2.66897H62.9886V2.5528H63.6872V2.43681H64.0365V2.32082H64.968V2.20464H65.7829V1.97267H66.5979V1.8565H67.413V1.74051H67.5294V1.62452H68.3443V1.50835H69.2758V1.39236H69.7415V1.27637H70.5566V1.1602H73.5837V0.928223Z" fill="#F4F4F4" fill-opacity="0.5"/>
<path d="M41.9146 0H42.6132V0.232162H42.4968V0.348152H42.1475V0.580314H41.7982V0.6963H41.5653V0.928463H41.216V1.04445H40.8667V1.27661H40.5174V1.3926H40.1682V1.62476H40.0518V1.74075H39.7025V1.97291H39.4696V2.0889H39.1203V2.32106H38.771V2.43705H38.4217V2.66921H38.3053V2.7852H37.956V3.01736H37.7231V3.13335H37.3738V3.36551H37.2575V3.4815H36.9082V3.71366H36.5589V3.82964H36.4425V3.94563H36.326V4.06181H36.0932V4.1778H35.8603V4.40996H35.6274V4.52595H35.3946V4.64193H35.2781V4.75811H35.0454V4.87409H34.8124V5.10626H34.4631V5.22225H34.3468V5.45441H34.1139V5.57039H33.8809V5.68638H33.7646V5.80256H33.6482V5.91854H33.2989V6.15071H33.066V6.26669H32.9496V6.38268H32.8331V6.49885H32.6003V6.61484H32.3674V6.84701H32.251V6.96299H31.9017V7.07898H31.6688V7.31114H31.3195V7.42713H31.2032V7.65929H30.9702V7.77528H30.8539V8.00744H30.5046V8.12343H30.2717V8.35559H29.9224V8.47158H29.806V8.70374H29.5731V8.81973H29.4567V9.05189H29.2238V9.16788H29.1074V9.28405H28.991V9.40004H28.7581V9.51603H28.6418V9.74819H28.4088V9.86417H28.1759V10.0963H27.9432V10.2123H27.7103V10.4445H27.5939V10.5605H27.361V10.7926H27.2446V10.9086H26.8953V11.1408H26.6624V11.2568H26.546V11.4889H26.3131V11.6049H26.1967V11.8371H25.9638V11.9531H25.8474V12.1852H25.6145V12.3012H25.4981V12.5334H25.2652V12.6494H25.0323V12.7654H24.9159V12.8815H24.7996V12.9975H24.5666V13.2297H24.4503V13.3457H24.2174V13.5778H24.101V13.6938H23.8681V13.926H23.7517V14.042H23.5188V14.2741H23.4024V14.3901H23.1695V14.5061H23.2858V14.6223H23.0531V14.7383H22.8202V14.8543H22.7038V15.0864H22.4709V15.2024H22.3545V15.4346H22.1216V15.5506H22.0052V15.7827H21.8887V15.8987H21.7723V16.1309H21.6559V16.2469H21.423V16.479H21.3067V16.595H21.1901V16.8272H20.9574V16.9432H20.8408V17.1753H20.6081V17.5235H20.4915V17.6395H20.2588V17.8716H20.1422V17.9876H19.9095V18.2198H19.7929V18.3358H19.6766V18.5679H19.5602V18.6839H19.4437V18.8001H19.3273V19.0321H19.2109V19.2642H19.0944V19.3802H18.8616V19.6124H18.7451V19.7284H18.5123V20.0765H18.3958V20.3087H18.163V20.6568H18.0465V20.7728H17.9301V20.889H17.8138V21.121H17.6974V21.3531H17.4645V21.7013H17.3481V21.8172H17.1152V22.1654H16.9988V22.5135H16.7659V22.7457H16.6495V22.9779H16.4166V23.326H16.3002V23.558H16.0673V23.9061H15.9509V24.3703H15.718V24.7184H15.6016V25.0666H15.3687V25.4147H15.2523V25.7629H15.0194V26.3432H14.903V26.8073H14.6701V27.6198H14.5537V28.3161H14.4373V28.4321H14.3208V29.3606H14.2044V31.4494H14.3208V32.2617H14.5537V32.842H14.6701V33.4222H14.903V33.7703H15.0194V34.0025H15.2523V34.3506H15.3687V34.4666H15.6016V34.6988H15.718V35.0469H15.9509V35.1629H16.0673V35.3951H16.3002V35.5111H16.6495V35.7432H16.7659V35.8592H16.9988V36.0914H17.3481V36.2074H17.4645V36.4395H17.8138V36.5555H18.163V36.6717H18.2794V36.7877H18.7451V36.9037H19.0944V37.1358H19.5602V37.2518H19.9095V37.484H20.6081V37.6H21.3067V37.8321H23.0531V37.9481H28.0595V37.8321H30.2717V37.6H31.3195V37.484H32.251V37.2518H32.9496V37.1358H33.6482V37.0198H33.7646V36.9037H34.3468V36.7877H35.1617V36.6717H35.9767V36.5555H36.326V36.4395H36.9082V36.3235H37.8397V36.2074H38.0724V36.0914H38.3053V35.9754H38.8875V35.8592H39.1203V35.7432H39.4696V35.6272H39.8189V35.5111H40.0518V35.3951H40.5174V35.2791H40.8667V35.0469H41.5653V34.9309H41.9146V34.8148H42.0312V34.6988H42.3805V34.5828H42.9625V34.4666H43.079V34.3506H43.4283V34.2346H44.0104V34.1185H44.2433V34.0025H44.3596V33.8865H44.8255V33.6543H45.1746V33.5383H45.5239V33.3062H45.8732V33.1902H46.339V33.074H46.5717V32.958H46.8047V32.842H47.154V32.7259H47.5033V32.6099H47.6196V32.4939H47.9689V32.3777H48.3182V32.1457H48.6675V31.9136H49.0168V31.7976H49.3661V31.6814H49.4826V31.5654H49.7154V31.4494H50.0647V31.3333H50.1812V31.2173H50.5305V31.1013H50.8798V30.9851H51.1125V30.8691H51.2291V30.7531H51.5784V30.637H51.8111V30.521H51.9277V30.405H52.3933V30.2888H52.6262V30.1728H52.7426V30.0569H52.9755V29.9407H53.3248V29.7087H53.6741V29.5925H53.9069V29.4765H54.0234V29.3606H54.1398V29.2444H54.3727V29.0124H54.722V28.7802H55.0713V28.6643H55.4206V28.5481H55.5369V28.4321H55.7699V28.3161H56.1192V28.1999H56.3519V28.0839H56.4684V27.968H56.5848V27.8518H56.8177V27.7358H56.9341V27.6198H57.2834V27.5036H57.6327V27.2717H57.8656V27.1555H58.0983V27.0395H58.2149V26.9235H58.3313V26.8073H58.5642V26.6913H58.6806V26.5754H58.9133V26.4592H59.2626V26.3432H59.3791V26.2272H59.4955V26.111H59.7284V25.8791H60.0777V25.7629H60.427V25.5309H60.6597V25.4147H60.7763V25.1828H61.1256V25.0666H61.4749V24.7184H61.5912V24.6024H61.7076V24.4865H61.9405V24.3703H62.1735V24.1383H62.2898V24.0221H62.6391V23.7902H62.872V23.674H63.1048V23.442H63.4541V23.326H63.687V23.0939H63.8034V22.9779H64.0363V22.8617H64.1526V22.7457H64.3856V22.6297H64.5019V22.5135H64.6185V22.3976H64.8512V22.2816H65.0841V22.0494H65.4334V21.9334H65.5498V21.7013H65.7827V21.5853H65.8991V21.4691H66.0157V21.3531H66.2484V21.2371H66.5977V21.7013H66.3649V21.8172H66.2484V22.0494H66.0157V22.1654H65.8991V22.3976H65.5498V22.5135H65.3171V22.6297H65.2005V22.8617H64.9678V22.9779H64.8512V23.2098H64.6185V23.326H64.5019V23.558H64.2692V23.674H63.9199V23.9061H63.8034V24.0221H63.5706V24.2543H63.4541V24.3703H63.2213V24.6024H63.1048V24.7184H62.872V24.8346H62.7555V24.9506H62.5227V25.0666H62.4062V25.2987H62.1735V25.4147H62.0569V25.5309H61.8242V25.6469H61.7076V25.7629H61.4749V25.995H61.3583V26.6913H61.1256V27.1555H61.009V27.7358H60.7763V28.0839H60.6597V28.6643H60.5434V29.0124H60.427V29.1284H60.3104V29.4765H60.1941V29.7087H60.0777V29.8247H59.9612V30.1728H59.8448V30.405H59.7284V30.521H59.6119V30.637H59.4955V30.9851H59.3791V31.1013H59.2626V31.3333H59.1462V31.5654H59.0298V31.6814H58.9133V31.7976H58.7969V32.0296H58.5642V32.2617H58.4476V32.4939H58.2149V32.842H58.0983V33.074H57.8656V33.1902H57.749V33.4222H57.5163V33.5383H57.3998V33.7703H57.167V33.8865H57.0505V34.1185H56.9341V34.2346H56.7012V34.4666H56.4684V34.5828H56.3519V34.8148H56.0026V35.1629H55.7699V35.2791H55.6533V35.5111H55.304V35.6272H54.9547V35.8592H54.722V35.9754H54.6054V36.2074H54.3727V36.3235H54.2561V36.4395H54.1398V36.5555H53.9069V36.6717H53.5576V36.9037H53.2083V37.0198H52.9755V37.2518H52.7426V37.3678H52.3933V37.484H52.277V37.6H52.044V37.716H51.6947V37.8321H51.5784V37.9481H50.8798V38.0641H50.6469V38.2963H50.2976V38.4123H49.7154V38.5284H49.2497V38.7604H48.6675V38.8766H47.9689V39.1086H46.4554V39.2247H42.8461V39.1086H41.216V38.8766H40.7504V39.1086H40.1682V39.2247H39.8189V39.4567H39.4696V39.5729H39.1203V39.8049H38.771V39.921H38.4217V40.153H38.0724V40.2692H37.6068V40.5011H37.2575V40.6173H36.9082V40.7333H36.7918V40.8493H36.5589V40.9655H36.2096V41.0815H36.0932V41.1975H35.7439V41.3136H35.1617V41.5456H34.6961V41.6618H34.3468V41.8937H33.9975V42.0099H33.6482V42.2419H33.066V42.3581H32.7167V42.59H32.251V42.7062H31.6688V42.9382H31.2032V43.0544H30.8539V43.2863H30.2717V43.4025H29.9224V43.6345H29.4567V43.7507H28.7581V43.9826H28.2925V44.0988H27.7103V44.3308H27.2446V44.447H26.6624V44.6789H26.1967V44.7951H25.7309V44.9111H25.6145V45.0271H24.7996V45.1433H24.101V45.3752H23.5188V45.4914H22.8202V45.7234H22.238V45.8396H21.6559V45.9556H21.5394V46.0715H20.8408V46.1877H19.4437V46.3037H18.5123V46.5359H17.4645V46.6519H16.4166V46.884H14.903V47H9.43079V46.884H8.38293V46.6519H7.45149V46.5359H6.86935V46.3037H6.17077V46.1877H5.47219V46.0715H5.00647V45.9556H4.89003V45.8396H4.54076V45.7234H4.19147V45.4914H4.07502V45.3752H3.72573V45.1433H3.37646V45.0271H3.1436V44.9111H3.02717V44.7951H2.7943V44.6789H2.67788V44.447H2.44501V44.3308H2.32859V44.0988H2.09572V43.9826H1.9793V43.8667H1.86288V43.7507H1.74643V43.6345H1.63001V43.4025H1.39714V43.2863H1.28072V42.9382H1.04785V42.7062H0.931429V42.3581H0.698581V42.0099H0.582138V41.5456H0.34929V40.9655H0.232848V40.2692H0V37.484H0.116424V37.3678H0.232848V36.4395H0.34929V35.9754H0.465714V35.7432H0.582138V35.0469H0.698581V34.5828H0.815004V34.4666H0.931429V34.0025H1.04785V33.6543H1.28072V33.3062H1.39714V32.958H1.63001V32.6099H1.74643V32.1457H1.9793V31.7976H2.09572V31.5654H2.21215V31.4494H2.32859V31.2173H2.44501V30.8691H2.67788V30.7531H2.7943V30.405H3.02717V29.9407H3.1436V29.7087H3.37646V29.4765H3.49289V29.1284H3.72573V29.0124H3.84218V28.6643H4.07502V28.3161H4.19147V28.0839H4.42431V27.968H4.54076V27.6198H4.7736V27.3876H4.89003V27.2717H5.1229V27.0395H5.23932V26.6913H5.47219V26.5754H5.58861V26.2272H5.82148V25.995H5.9379V25.8791H6.17077V25.6469H6.28719V25.4147H6.52006V25.1828H6.63648V24.9506H6.86935V24.8346H6.98577V24.6024H7.21864V24.4865H7.33506V24.3703H7.45149V24.0221H7.68435V23.7902H7.80078V23.674H8.03364V23.442H8.15007V23.326H8.38293V23.0939H8.49936V22.9779H8.73222V22.6297H8.84865V22.5135H8.96507V22.3976H9.0815V22.2816H9.19794V22.0494H9.43079V21.9334H9.54723V21.7013H9.78008V21.5853H9.89652V21.3531H10.1294V21.2371H10.2458V21.005H10.4787V20.889H10.5951V20.6568H10.8279V20.5408H10.9444V20.3087H11.1772V20.1927H11.2937V19.9605H11.5265V19.8445H11.643V19.6124H11.8758V19.4964H11.9922V19.3802H12.1087V19.2642H12.2251V19.1482H12.3415V19.0321H12.5744V18.9161H12.6908V18.8001H12.9237V18.5679H13.0401V18.4519H13.273V18.2198H13.3894V18.1038H13.6223V17.8716H13.7387V17.7556H14.088V17.5235H14.3208V17.4075H14.4373V17.1753H14.6701V17.0593H14.7865V16.8272H15.0194V16.7112H15.1358V16.595H15.4851V16.363H15.6016V16.2469H15.8344V16.0149H15.9509V15.8987H16.1837V15.6667H16.4166V15.5506H16.6495V15.3186H16.8823V15.2024H16.9988V15.0864H17.1152V14.9704H17.3481V14.8543H17.5808V14.6223H17.6974V14.5061H17.9301V14.2741H18.163V14.158H18.3958V13.926H18.6287V13.8098H18.7451V13.5778H19.0944V13.4617H19.3273V13.2297H19.4437V13.1135H19.7929V12.8815H20.0259V12.7654H20.3752V12.5334H20.4915V12.4172H20.7244V12.1852H20.9574V12.0691H21.1901V11.8371H21.423V11.7209H21.7723V11.4889H21.8887V11.3728H22.1216V11.1408H22.4709V11.0246H22.5873V10.7926H22.8202V10.6765H23.0531V10.5605H23.1695V10.4445H23.4024V10.3283H23.6351V10.0963H23.8681V9.98016H24.101V9.86417H24.2174V9.74819H24.3337V9.6322H24.683V9.40004H25.0323V9.28405H25.1489V9.05189H25.4981V8.9359H25.7309V8.70374H25.9638V8.58775H26.1967V8.47158H26.4295V8.2396H26.7788V8.12343H27.128V7.89145H27.2446V7.77528H27.5939V7.5433H27.8266V7.42713H28.1759V7.19515H28.5252V7.07898H28.8745V6.84701H28.991V6.73083H29.3403V6.49885H29.5731V6.38268H29.9224V6.15071H30.0389V6.03453H30.6209V5.80256H30.8539V5.68638H31.0868V5.45441H31.4359V5.33823H31.5524V5.10626H31.9017V4.99008H32.1345V4.87409H32.3674V4.75811H32.6003V4.64193H32.9496V4.40996H33.2989V4.29378H33.5316V4.06181H33.8809V3.94563H34.1139V3.82964H34.2302V3.71366H34.4631V3.59748H34.9288V3.36551H35.2781V3.24933H35.6274V3.01736H35.7439V2.90119H36.0932V2.66921H36.4425V2.55304H36.6753V2.43705H36.7918V2.32106H37.2575V2.20488H37.7231V1.97291H37.8397V1.85674H38.189V1.74075H38.3053V1.62476H38.5383V1.50859H38.8875V1.27661H39.2368V1.16044H39.7025V1.04445H39.8189V0.928463H40.0518V0.812287H40.4011V0.6963H40.7504V0.464138H41.0997V0.348152H41.449V0.115989H41.9146V0Z" fill="#F4F4F4" fill-opacity="0.5"/>
<path d="M43.6613 5.91846H45.5241V6.03444H46.6885V6.26661H46.5719V6.49877H47.2705V6.61476H47.7364V6.73074H48.5513V6.84692H49.017V6.96291H49.1335V7.07889H49.4828V7.19507H49.9485V7.07889H50.4141V7.19507H50.6471V7.31105H50.7634V7.54322H50.4141V7.42704H49.8321V7.54322H50.0649V7.77519H50.4141V7.89137H50.5307V8.12334H50.7634V8.23952H50.88V8.47149H51.1127V8.70365H50.88V8.81964H51.1127V9.16779H50.5307V9.28397H50.1814V10.5604H50.5307V10.7926H50.7634V11.2567H50.88V11.953H50.9964V12.069H51.1127V12.3011H51.2293V12.4171H51.462V12.5333H51.5786V12.6493H51.8113V12.1851H52.0442V12.3011H52.2771V12.4171H52.5099V12.5333H52.6264V12.7653H52.9757V12.4171H52.8592V12.3011H52.6264V12.069H52.5099V11.6048H52.3935V11.4889H52.1606V11.3727H51.9279V11.2567H51.6949V11.0245H51.5786V10.6764H51.462V10.5604H51.2293V10.2122H51.5786V10.5604H51.8113V10.6764H51.9279V11.0245H52.1606V11.1407H52.2771V11.2567H52.6264V10.6764H52.9757V11.3727H53.2085V11.6048H53.325V11.7208H53.2085V11.953H53.325V12.069H53.5578V12.3011H53.6743V12.6493H53.5578V12.7653H53.325V13.1134H52.6264V15.0863H52.3935V15.3185H52.2771V15.5505H52.0442V15.7826H52.6264V15.8986H52.9757V16.3629H53.0921V16.7111H52.9757V16.8271H52.7428V16.9431H52.2771V17.0592H52.0442V17.5234H52.1606V17.6394H52.2771V17.9875H52.3935V18.2197H52.5099V18.4518H52.6264V18.8H52.9757V18.6838H53.325V18.8H53.5578V18.6838H53.6743V18.5678H53.7907V18.4518H54.0236V18.2197H54.14V17.8715H54.0236V16.2468H54.3729V15.6666H54.4893V15.5505H54.8385V15.6666H55.0715V15.8986H55.7701V16.0148H56.1193V15.6666H55.7701V15.5505H55.0715V15.4345H54.8385V14.9703H55.0715V15.0863H55.5371V15.2023H56.1193V15.4345H56.2357V15.5505H56.4686V15.6666H56.585V15.8986H56.9343V16.0148H57.1672V16.1308H57.2836V15.8986H57.1672V15.5505H56.9343V15.2023H56.8179V14.8542H56.9343V14.506H56.8179V14.39H56.7014V14.274H56.585V14.1579H56.4686V13.8097H56.2357V13.3456H56.1193V13.2296H56.0028V12.9974H56.2357V12.7653H56.1193V12.3011H56.4686V12.7653H57.2836V12.8814H57.3999V12.9974H57.5165V13.6937H57.1672V15.2023H57.2836V15.4345H57.5165V15.5505H57.9822V15.2023H58.2151V14.8542H58.5644V15.2023H58.6807V15.5505H58.7971V15.7826H58.9135V16.3629H58.7971V16.4789H58.6807V16.9431H58.5644V17.0592H58.4478V17.1752H58.2151V17.2912H57.8658V18.1037H57.1672V17.9875H56.9343V18.1037H56.7014V18.2197H56.2357V17.6394H56.1193V17.5234H56.0028V17.4074H55.8864V17.2912H55.7701V17.4074H55.5371V17.6394H55.1878V17.7555H55.0715V17.9875H54.8385V18.1037H54.7222V18.3357H54.3729V18.8H54.2563V18.916H54.14V19.032H53.5578V19.1481H53.4414V19.7283H53.325V19.9604H53.2085V21.469H52.9757V21.5852H52.7428V21.8172H52.6264V22.2815H52.5099V22.6296H52.3935V22.9778H52.2771V24.1382H52.3935V24.2542H52.5099V24.4864H52.6264V25.4146H52.5099V25.5308H52.2771V25.7628H52.5099V25.879H52.6264V26.4591H52.9757V26.6913H53.0921V26.8072H53.325V26.9234H53.6743V27.2716H53.907V27.3876H54.0236V27.5035H54.3729V27.6197H54.6056V27.7357H55.1878V27.6197H55.4208V27.5035H55.7701V27.2716H55.8864V27.1554H56.4686V26.9234H56.585V26.8072H56.7014V26.6913H56.8179V26.4591H56.9343V26.3431H57.0507V26.2271H57.2836V26.1109H57.6329V26.2271H57.8658V26.3431H57.9822V26.2271H58.2151V26.1109H58.5644V26.8072H58.3315V26.9234H58.2151V27.0394H58.0985V27.1554H57.8658V27.2716H57.6329V27.5035H57.2836V27.6197H56.9343V27.7357H56.8179V27.8517H56.585V27.9679H56.4686V28.0839H56.3521V28.1998H56.1193V28.316H55.7701V28.432H55.5371V28.548H55.4208V28.6642H55.0715V28.7802H54.7222V29.0123H54.3729V29.2443H54.14V29.3605H54.0236V29.4764H53.907V29.5924H53.6743V29.7086H53.325V29.9406H52.9757V30.0568H52.7428V30.1727H52.6264V30.2887H52.3935V30.4049H51.9279V30.5209H51.8113V30.6369H51.5786V30.7531H51.2293V30.8691H51.1127V30.985H50.88V31.1012H50.5307V31.2172H50.1814V31.3332H50.0649V31.4494H49.7156V31.5653H49.4828V31.6813H49.3663V31.7975H49.017V31.9135H48.6677V32.1457H48.3184V32.3776H47.9691V32.4938H47.6198V32.6098H47.5035V32.7258H47.1542V32.842H46.8049V32.9579H46.5719V33.0739H46.3392V33.1901H45.8734V33.3061H45.5241V33.5383H45.1748V33.6542H44.8257V33.8864H44.3598V34.0024H44.2435V34.1184H44.0105V34.2346H43.4285V34.3505H43.0792V34.4665H42.9627V34.5827H42.3806V34.6987H42.0314V34.8147H41.9148V34.9309H41.5655V35.0468H40.8669V35.279H40.5176V35.395H40.052V35.511H39.8191V35.6272H39.4698V35.7431H39.1205V35.8591H38.8877V35.9753H38.3055V36.0913H38.0726V36.2073H37.8399V36.3235H36.9084V36.4394H36.3262V36.5554H35.9769V36.6716H35.3948V36.5554H35.0455V36.3235H34.929V36.2073H34.6963V35.9753H34.347V35.8591H34.2304V35.6272H33.9977V35.511H33.7648V35.395H33.6484V35.279H33.5318V35.1628H33.2991V34.9309H33.1825V34.8147H32.9498V34.5827H32.8333V34.4665H32.6005V34.2346H32.484V34.1184H32.2512V33.8864H32.1347V33.7702H31.9019V33.5383H31.7854V33.1901H31.5526V33.0739H31.4361V32.842H31.2034V32.7258H31.087V32.3776H30.9704V32.1457H30.7377V32.0295H30.6211V31.6813H30.3884V31.4494H30.2719V31.1012H30.0391V30.7531H29.9226V30.5209H29.6898V30.1727H29.5733V29.8246H29.3405V29.5924H29.224V29.2443H29.1076V29.1283H28.9912V28.7802H28.8747V28.1998H28.642V27.7357H28.5254V27.0394H28.2927V26.4591H28.1761V25.7628H27.9434V24.9505H27.8268V23.3259H27.7104V22.9778H27.8268V22.0493H27.7104V21.8172H27.8268V20.1926H27.9434V19.6123H28.0597V19.4963H28.1761V19.032H28.2927V18.3357H28.5254V17.4074H28.642V16.5949H28.9912V16.0148H29.224V15.6666H29.3405V15.3185H29.5733V14.9703H29.6898V14.8542H29.8062V14.7382H29.9226V14.39H30.0391V14.1579H30.2719V13.8097H30.3884V13.6937H30.5048V13.5777H30.6211V13.2296H30.7377V13.1134H30.8541V12.9974H30.9704V12.7653H31.087V12.6493H31.2034V12.5333H31.3197V12.3011H31.4361V12.069H31.669V11.953H31.7854V11.7208H32.0183V11.4889H32.1347V11.3727H32.3676V11.1407H32.484V11.0245H32.7169V10.7926H32.8333V10.5604H33.1825V10.3282H33.4155V10.2122H33.5318V9.98008H33.6484V9.86409H33.8811V9.63212H34.114V9.51594H34.2304V9.39995H34.347V9.28397H34.4633V9.16779H34.5797V9.0518H34.8126V8.93581H34.929V8.81964H35.1619V8.70365H35.2783V8.58767H35.5112V8.47149H35.8605V8.3555H35.9769V8.23952H36.3262V8.47149H36.5591V8.70365H36.6754V8.93581H36.5591V9.0518H36.4427V9.16779H36.3262V9.51594H35.9769V9.86409H35.8605V9.98008H35.7441V10.0963H35.6276V10.3282H35.5112V10.5604H35.3948V10.6764H35.2783V10.7926H35.1619V10.9085H34.929V11.0245H34.8126V11.2567H34.5797V11.3727H34.4633V11.6048H34.347V11.7208H34.2304V12.069H34.114V12.5333H33.8811V12.6493H33.5318V12.7653H33.4155V12.9974H33.1825V13.1134H33.0662V13.3456H32.8333V13.4616H32.7169V13.5777H32.484V13.8097H32.3676V14.0419H32.1347V14.1579H32.0183V14.7382H31.9019V14.8542H31.669V14.9703H31.5526V15.2023H31.4361V15.7826H31.3197V15.8986H31.4361V16.2468H31.3197V17.0592H31.5526V17.6394H31.3197V19.1481H31.2034V20.4246H31.3197V20.7727H31.2034V21.7012H31.3197V22.2815H31.4361V22.3975H31.5526V22.5135H31.669V22.7456H31.7854V22.9778H32.0183V23.3259H32.3676V23.4419H32.484V23.5579H32.6005V23.6739H32.7169V24.022H32.8333V24.2542H32.9498V24.3702H33.1825V24.7183H33.4155V24.8345H33.5318V24.9505H33.6484V25.0665H33.7648V25.2987H33.8811V25.6468H33.9977V26.1109H34.2304V26.4591H34.4633V26.5753H34.5797V26.8072H34.8126V26.9234H34.929V27.1554H35.2783V26.9234H35.6276V26.5753H34.8126V26.3431H34.6963V26.2271H34.5797V24.4864H34.4633V24.3702H33.7648V23.5579H33.8811V23.3259H34.114V22.9778H34.2304V22.6296H33.5318V22.7456H33.4155V22.9778H32.7169V22.8616H32.484V22.1653H32.3676V21.5852H32.484V20.7727H32.6005V20.6567H32.7169V20.5407H32.8333V20.0764H33.0662V19.8444H34.114V19.9604H34.347V20.1926H35.2783V20.5407H35.6276V22.2815H35.9769V21.9333H36.0934V20.8889H36.2098V20.5407H36.3262V20.4246H36.4427V20.3086H36.5591V20.1926H36.792V20.0764H37.374V19.8444H37.7233V19.6123H37.8399V19.1481H38.1892V19.032H38.3055V18.8H38.4219V18.6838H38.5385V18.5678H38.6548V18.3357H39.4698V17.7555H39.5863V17.6394H40.5176V17.9875H40.8669V17.6394H41.5655V17.7555H41.9148V17.6394H41.6821V17.4074H41.7984V17.2912H41.5655V17.4074H41.0999V17.2912H40.8669V16.5949H40.9835V16.4789H40.5176V16.5949H40.1684V16.3629H40.2849V16.2468H40.6342V16.0148H41.5655V16.1308H42.6134V16.2468H42.3806V16.5949H42.2641V16.7111H42.0314V17.0592H42.3806V17.2912H42.7299V17.5234H43.0792V17.4074H43.312V16.5949H43.0792V16.4789H42.9627V16.3629H42.8463V16.1308H42.9627V15.3185H42.7299V14.9703H42.6134V14.8542H42.1477V14.7382H42.0314V13.6937H41.9148V13.8097H41.2162V13.5777H41.3328V13.1134H41.2162V12.7653H40.5176V12.8814H40.4013V12.9974H40.2849V13.1134H40.1684V13.4616H40.052V14.1579H39.8191V14.274H39.7027V14.39H39.4698V14.506H39.1205V15.2023H38.7712V13.9259H38.6548V13.8097H38.5385V13.6937H38.4219V13.1134H38.0726V12.7653H38.1892V12.4171H38.4219V12.3011H38.6548V12.1851H38.7712V12.069H39.1205V11.953H39.4698V11.7208H39.8191V11.6048H39.9356V11.3727H40.5176V11.6048H40.8669V11.3727H41.2162V10.9085H41.6821V11.953H41.3328V12.069H40.9835V12.4171H41.3328V12.7653H41.5655V12.9974H41.6821V13.1134H42.1477V12.9974H42.2641V12.4171H42.1477V12.1851H42.3806V12.3011H42.7299V11.953H42.6134V10.9085H42.497V10.7926H42.6134V10.6764H42.7299V10.5604H42.497V10.4444H42.6134V10.3282H43.0792V10.2122H42.7299V9.98008H42.497V9.86409H42.6134V9.63212H42.9627V9.51594H43.1956V9.63212H43.0792V9.86409H43.1956V9.98008H43.312V10.2122H43.5449V10.3282H43.6613V10.4444H43.7778V10.5604H43.8942V11.1407H44.1271V11.7208H43.8942V11.837H43.7778V12.7653H43.8942V12.9974H44.0105V13.1134H44.1271V13.4616H44.4764V13.5777H44.7091V13.8097H45.1748V13.1134H45.4077V12.9974H45.5241V12.6493H45.757V12.5333H45.8734V12.3011H45.9899V12.069H46.4556V11.953H46.5719V11.6048H46.6885V11.3727H46.5719V11.2567H46.4556V11.0245H46.9212V10.9085H46.5719V10.5604H46.6885V10.2122H46.5719V9.86409H46.2227V8.81964H45.8734V8.93581H45.5241V8.70365H44.8257V8.81964H44.7091V8.93581H44.1271V8.81964H43.7778V8.70365H43.0792V8.81964H42.6134V8.93581H42.3806V9.16779H42.8463V9.28397H42.497V9.51594H42.2641V9.86409H42.0314V9.28397H41.6821V9.51594H41.5655V9.16779H41.3328V8.93581H41.2162V8.70365H41.0999V8.58767H40.8669V8.81964H40.6342V9.16779H40.8669V9.28397H40.4013V8.93581H40.5176V8.70365H39.8191V8.81964H39.4698V9.16779H39.237V8.81964H38.7712V8.47149H38.8877V8.23952H39.0041V8.12334H39.1205V8.00736H39.237V7.77519H39.4698V7.54322H39.7027V7.42704H39.5863V7.31105H39.4698V7.42704H39.1205V7.54322H38.7712V7.42704H38.8877V7.31105H38.5385V7.42704H38.4219V7.54322H38.0726V7.42704H37.9562V7.31105H38.0726V7.19507H38.1892V7.07889H38.5385V6.96291H38.7712V6.84692H39.8191V6.73074H40.4013V6.61476H40.8669V6.3826H41.2162V6.26661H41.5655V6.15062H42.2641V6.03444H43.6613V5.91846Z" fill="white" fill-opacity="0.5"/>
<path d="M61.1255 25.9951H61.3583V26.6914H61.1255V27.1556H61.009V27.7359H60.7763V28.084H60.6597V28.6643H60.5433V29.0125H60.427V29.1285H60.3104V29.4766H60.194V29.7088H60.0777V29.8248H59.9611V30.1729H59.8448V30.4051H59.7284V30.5211H59.6118V30.637H59.4955V30.9852H59.3791V31.1014H59.2625V31.3333H59.1462V31.5655H59.0298V31.6815H58.9133V31.7977H58.7969V32.0296H58.5641V32.2618H58.4476V32.494H58.2149V32.8421H58.0983V33.0741H57.8656V33.1903H57.749V33.4222H57.5163V33.5384H57.3997V33.7704H57.167V33.8866H57.0504V34.1185H56.9341V34.2347H56.7011V34.4667H56.4684V34.5829H56.3518V34.8148H56.0026V35.163H55.7698V35.2792H55.6533V35.5111H55.304V35.6273H54.9547V35.8593H54.722V35.9755H54.6054V36.2074H54.3727V36.3236H54.2561V36.4396H54.1397V36.5556H53.9068V36.6718H53.5575V36.9037H53.2082V37.0199H52.9755V37.2519H52.7426V37.3679H52.3933V37.4841H52.2769V37.6H52.044V37.716H51.6947V37.8322H51.5783V37.9482H50.8798V38.0642H50.6468V38.2963H50.2975V38.4123H49.7153V38.5285H49.2497V38.7605H48.6675V38.8766H47.9689V39.1086H46.4553V39.2248H42.8461V39.1086H41.216V38.8766H40.8667V38.5285H41.216V38.4123H41.3325V38.2963H41.6818V38.1803H42.0311V38.0642H42.3804V37.8322H42.6132V37.716H42.7297V37.6H42.9624V37.4841H43.3117V37.3679H43.4283V37.2519H43.5447V37.1359H44.0103V37.0199H44.3596V36.9037H44.4762V36.7878H44.5925V36.6718H44.8255V36.4396H45.1746V36.3236H45.5238V36.0915H45.8731V35.9755H46.2224V35.7433H46.5717V35.6273H46.6883V35.5111H46.8046V35.3952H47.0376V35.2792H47.2703V35.163H47.3869V35.047H47.6196V34.931H47.9689V34.6989H48.3182V34.5829H48.6675V34.4667H48.9004V34.3507H49.0167V34.2347H49.1333V34.0026H49.4826V33.8866H49.7153V33.6544H50.0646V33.5384H50.1812V33.4222H50.2975V33.3063H50.5305V33.1903H50.8798V32.9581H51.229V32.8421H51.3454V32.7259H51.4618V32.61H51.8111V32.494H52.044V32.3778H52.2769V32.1458H52.6262V31.9137H52.7426V31.7977H52.9755V31.6815H53.0919V31.5655H53.3248V31.4495H53.6741V31.3333H53.9068V31.2174H54.0234V31.1014H54.2561V30.9852H54.3727V30.7532H54.722V30.5211H54.8383V30.4051H55.0712V30.2889H55.1876V30.1729H55.4205V30.0569H55.7698V29.8248H55.8862V29.7088H56.1191V29.5926H56.2355V29.4766H56.3518V29.3606H56.5848V29.2444H56.7011V29.1285H56.8177V29.0125H57.167V28.7803H57.2834V28.6643H57.6326V28.5482H57.8656V28.3162H57.9819V28.2H58.2149V28.084H58.3312V27.968H58.5641V27.8519H58.6805V27.6199H59.0298V27.5037H59.1462V27.3877H59.2625V27.2717H59.3791V27.1556H59.7284V26.9236H59.9611V26.8074H60.0777V26.5754H60.427V26.4593H60.6597V26.3433H60.7763V26.1111H61.1255V25.9951Z" fill="#F4F4F4" fill-opacity="0.5"/>
<path d="M36.3259 26.5752H37.3737V27.1553H37.723V26.9233H38.0723V27.1553H38.4216V27.2715H38.8875V27.5035H39.8188V27.6196H40.1681V28.1998H40.6339V28.3159H40.8666V28.5479H40.9832V28.8961H41.2159V29.0122H42.2638V29.1282H42.3804V29.2442H42.6131V29.3604H42.7297V29.4764H42.846V29.5924H43.0789V29.9405H43.1953V30.4048H43.0789V30.5208H42.9624V30.753H43.3117V30.6368H43.661V30.985H43.3117V31.2171H43.661V31.1011H43.7775V30.869H44.3596V30.985H44.8254V31.1011H44.9418V31.3331H45.8731V31.4493H46.6882V31.5653H46.921V31.7974H47.6195V31.9134H47.7361V32.4937H47.6195V32.6097H47.5032V32.7257H47.1539V32.8419H46.8046V32.9579H46.5717V33.0739H46.3389V33.19H45.8731V33.306H45.5238V33.5382H45.1745V33.6542H44.8254V33.8863H44.3596V34.0023H44.2432V34.1183H44.0103V34.2345H43.4282V34.3505H43.0789V34.4665H42.9624V34.5826H42.3804V34.6986H42.0311V34.8146H41.9145V34.9308H41.5652V35.0468H40.8666V35.2789H40.5174V35.3949H40.0517V35.5109H39.8188V35.6271H39.4695V35.7431H39.1202V35.8591H38.8875V35.9752H38.3052V36.0912H38.0723V35.9752H38.1889V35.0468H38.0723V34.2345H37.956V34.0023H37.8396V33.8863H37.723V33.6542H37.3737V33.5382H37.141V33.422H36.9081V33.19H36.6752V33.0739H36.5588V32.9579H36.3259V32.4937H36.0931V32.3776H35.9766V31.9134H35.8602V31.7974H35.7438V31.6813H35.6273V31.4493H35.5109V31.3331H35.3946V31.1011H35.278V30.753H35.0453V30.5208H34.9287V30.0567H35.0453V29.7085H34.9287V29.0122H35.278V28.7801H35.3946V28.6641H35.5109V28.5479H35.7438V27.5035H35.6273V26.9233H36.3259V26.5752Z" fill="#F4F4F4" fill-opacity="0.5"/>
<path d="M61.1256 25.9951H61.3583V26.6914H61.1256V27.1555H61.009V27.7359H60.7763V28.084H60.6597V28.6643H60.5434V29.0125H60.427V29.1285H60.3104V29.4766H60.1941V29.7088H60.0777V29.8248H59.9612V30.1729H59.8448V30.4051H59.7284V30.5211H59.6119V30.637H59.4955V30.9852H59.3791V31.1014H59.2626V31.3333H59.1462V31.5655H59.0298V31.6815H58.9133V31.7977H58.7969V32.0296H58.5642V32.2618H58.4476V32.494H58.2149V32.8421H58.0983V33.0741H57.8656V33.1903H57.749V33.4222H57.5163V33.5384H57.3998V33.7704H57.167V33.8866H57.0505V34.1185H56.9341V34.2347H56.7012V34.1185H56.8177V33.8866H56.9341V33.5384H57.167V33.3063H57.2834V33.1903H57.5163V33.0741H57.749V32.7259H57.8656V32.494H57.982V31.7977H58.2149V30.8692H58.3313V30.4051H58.4476V30.2889H58.5642V30.1729H58.6805V29.8248H58.7969V29.7088H58.9133V27.968H58.7969V27.8519H58.6805V27.6199H59.0298V27.5037H59.1462V27.3877H59.2626V27.2717H59.3791V27.1555H59.7284V26.9236H59.9612V26.8074H60.0777V26.5754H60.427V26.4593H60.6597V26.3433H60.7763V26.1111H61.1256V25.9951Z" fill="#F4F4F4" fill-opacity="0.5"/>
<path d="M28.4088 17.5234H28.5252V18.3357H28.2924V19.032H28.1759V19.4963H28.0595V19.6123H27.9431V19.7283H27.7102V19.8445H27.5938V19.9605H27.3609V20.0765H26.8953V20.3086H26.6623V20.4246H26.3131V20.6568H26.1967V20.7728H25.8474V21.0049H25.6145V21.1209H25.2652V21.3531H24.9159V21.4691H24.5666V21.7012H24.4502V21.8172H24.1009V22.0494H23.868V22.1654H23.7517V22.2815H23.5187V22.3975H23.1694V22.5135H23.0531V22.6297H22.8201V22.7457H22.7038V22.8617H22.4709V22.7457H22.3545V22.6297H22.4709V22.3975H22.8201V22.2815H22.9365V22.0494H23.0531V21.9334H23.2858V21.7012H23.4024V21.5852H23.7517V21.3531H23.9844V21.2371H24.3337V21.0049H24.4502V20.8889H24.683V20.6568H24.9159V20.5408H25.1488V20.3086H25.3816V20.1926H25.6145V20.0765H25.7308V19.9605H25.8474V19.8445H26.0801V19.7283H26.1967V19.6123H26.4294V19.4963H26.546V19.2642H26.7787V19.1482H27.128V18.916H27.3609V18.8H27.5938V18.5679H27.8266V18.4519H28.1759V18.2197H28.2924V17.6394H28.4088V17.5234Z" fill="#F4F4F4" fill-opacity="0.5"/>
</g>
</g>
<defs>
<clipPath id="clip0_566_238">
<rect width="90" height="47" fill="white"/>
</clipPath>
</defs>
</svg>
